<?xml version="1.0" encoding="UTF-8"?>
<!DOCTYPE svg PUBLIC "-//W3C//DTD SVG 1.1//EN" "http://www.w3.org/Graphics/SVG/1.1/DTD/svg11.dtd">
<svg version="1.1" xmlns="http://www.w3.org/2000/svg" xmlns:xlink="http://www.w3.org/1999/xlink" x="0" y="0" width="419.89300537109375" height="88.95899963378906" viewBox="0, 0, 419.893, 88.959">
  <g id="Calque_1" transform="translate(-108.356, -257.271)">
    <g>
      <path d="M384.933,258.832 C384.928,268.33 384.926,282.416 384.933,291.912 C377.577,291.906 375.748,291.902 368.395,291.912 L368.395,275.371 C368.395,262.966 372.529,258.832 384.933,258.832 z" fill-opacity="0" stroke="#77BEE8" stroke-width="1" stroke-linejoin="round" class="svg-anteika-1"></path>
      <path d="M157.523,258.832 L174.064,258.832 C174.174,288.194 174.064,300.089 174.064,329.122 C174.064,337.393 165.795,345.661 157.523,345.661 L128.582,345.661 C132.717,337.393 132.717,337.393 136.851,329.122 L145.121,329.122 C153.391,329.122 157.523,324.989 157.523,316.718 L157.523,279.508 C151.424,291.708 131.482,331.591 124.447,345.661 C116.256,345.63 121.935,345.661 117.799,345.661 C109.531,345.661 107.909,337.393 112.043,329.122 C116.178,320.853 136.851,279.508 140.986,271.236 C145.121,262.966 149.255,258.832 157.523,258.832 z" fill-opacity="0" stroke="#77BEE8" stroke-width="1" stroke-linejoin="round" class="svg-anteika-2"></path>
      <path d="M178.198,258.771 C186.467,258.832 186.467,258.832 194.738,258.832 C203.006,258.832 207.141,262.966 211.277,271.236 C215.41,279.508 227.814,304.316 231.949,312.651 L231.949,271.236 C231.949,262.966 236.083,258.832 244.353,258.832 C249.572,258.727 243.269,258.875 248.488,258.832 C248.319,288.093 248.488,300.457 248.488,329.192 C248.488,337.459 240.218,345.729 231.949,345.729 L227.814,345.729 L194.738,279.576 L194.738,316.788 C194.738,325.055 198.871,329.192 207.141,329.192 L215.41,329.192 C220.161,337.502 219.545,337.459 223.68,345.729 L194.738,345.729 C186.469,345.729 178.198,337.459 178.198,329.192 C178.198,299.171 178.345,288.788 178.198,258.771 z" fill-opacity="0" stroke="#77BEE8" stroke-width="1" stroke-linejoin="round" class="svg-anteika-3"></path>
      <path d="M252.624,258.832 L256.758,258.832 C265.028,258.832 269.161,262.966 269.161,271.236 C269.161,281.111 269.008,283.565 269.161,295.728 C273.601,295.741 281.264,295.731 285.7,295.728 C285.694,304.304 285.694,304.007 285.7,312.585 C281.248,312.58 273.612,312.56 269.161,312.585 L269.161,316.718 C269.161,324.989 273.297,329.122 281.567,329.122 L285.7,329.122 C290.448,337.911 289.315,336.855 293.969,345.661 L269.161,345.661 C260.893,345.661 252.624,337.393 252.624,329.122 C252.624,300.906 252.802,288.53 252.624,258.832 z" fill-opacity="0" stroke="#77BEE8" stroke-width="1" stroke-linejoin="round" class="svg-anteika-4"></path>
      <path d="M318.779,275.372 C310.508,275.372 306.377,279.507 306.377,287.774 L306.377,295.966 L331.179,295.966 L331.179,287.774 C331.179,279.507 327.049,275.372 318.779,275.372 z M306.377,258.833 L331.179,258.833 C339.45,258.833 347.722,267.103 347.722,275.372 C347.722,295.358 347.768,293.905 347.722,312.592 C331.643,312.587 322.45,312.579 306.377,312.592 L306.377,316.639 C306.377,324.909 310.508,329.043 318.779,329.043 C325.714,329.043 331.179,324.989 331.179,316.489 C338.537,316.491 340.368,316.494 347.722,316.489 L347.722,329.043 L339.45,345.66 C339.45,345.66 312.138,345.762 298.103,345.584 C293.969,337.313 293.969,337.313 289.834,329.043 L289.834,275.372 C289.834,267.103 298.103,258.833 306.377,258.833 z" fill-opacity="0" stroke="#77BEE8" stroke-width="1" stroke-linejoin="round" class="svg-anteika-5"></path>
      <path d="M389.068,258.832 L393.202,258.832 C401.474,258.832 405.606,262.966 405.606,271.236 L405.606,312.585 C413.878,296.044 413.878,296.044 422.147,279.508 C426.28,271.236 430.415,258.832 442.818,258.832 L459.358,258.832 C459.35,271.546 459.35,279.197 459.358,291.912 C453.382,291.902 448.797,291.906 442.818,291.912 C442.814,290.193 442.899,281.219 442.818,279.508 C434.886,292.714 425.076,315.405 418.01,329.122 C431.519,329.107 459.358,329.122 459.358,329.122 C459.358,337.393 451.484,345.661 442.818,345.661 L413.509,345.661 L418.01,337.388 C416.661,337.363 414.851,337.373 413.509,337.393 L409.375,345.661 L405.606,345.661 C397.337,345.661 389.068,337.393 389.068,329.122 L389.068,258.832 z" fill-opacity="0" stroke="#77BEE8" stroke-width="1" stroke-linejoin="round" class="svg-anteika-6"></path>
      <path d="M351.855,296.044 C363.805,296.051 372.983,296.054 384.933,296.044 C385.005,313.507 384.933,311.956 384.933,329.124 C384.933,337.392 376.665,345.661 368.394,345.661 L343.588,345.661 C347.722,337.392 347.722,337.392 351.855,329.124 L355.989,329.124 C364.261,329.124 368.394,324.989 368.394,316.72 L368.394,312.585 C363.8,312.571 356.444,312.58 351.855,312.585 C351.86,304.007 351.864,304.622 351.855,296.044 z" fill-opacity="0" stroke="#77BEE8" stroke-width="1" stroke-linejoin="round" class="svg-anteika-7"></path>
      <path d="M480.08,258.832 L463.54,258.832 C463.432,288.194 463.54,300.089 463.54,329.122 C463.54,337.393 471.811,345.661 480.08,345.661 L509.024,345.661 C504.887,337.393 504.887,337.393 500.756,329.122 L492.483,329.122 C484.215,329.122 480.08,324.989 480.08,316.718 L480.08,279.508 C486.18,291.708 506.121,331.591 513.158,345.661 C521.348,345.63 515.672,345.661 519.805,345.661 C528.076,345.661 529.695,337.393 525.562,329.122 C521.426,320.853 500.752,279.508 496.619,271.236 C492.483,262.966 488.35,258.832 480.08,258.832 z" fill-opacity="0" stroke="#77BEE8" stroke-width="1" stroke-linejoin="round" class="svg-anteika-8"></path>
    </g>
  </g>
</svg>

