<?xml version="1.0" encoding="UTF-8"?>
<!DOCTYPE svg PUBLIC "-//W3C//DTD SVG 1.1//EN" "http://www.w3.org/Graphics/SVG/1.1/DTD/svg11.dtd">
<svg version="1.1" xmlns="http://www.w3.org/2000/svg" xmlns:xlink="http://www.w3.org/1999/xlink" x="0" y="0" width="512" height="512" viewBox="0, 0, 512, 512">
  <g id="Calque_1">
    <path d="M437,0 L75,0 C33.645,0 0,33.645 0,75 L0,437 C0,478.355 33.645,512 75,512 L437,512 C478.355,512 512,478.355 512,437 L512,75 C512,33.645 478.355,0 437,0 z M482,437 C482,461.812 461.812,482 437,482 L75,482 C50.188,482 30,461.812 30,437 L30,75 C30,50.188 50.188,30 75,30 L437,30 C461.812,30 482,50.188 482,75 z M482,437" fill="#FFFFFF"/>
    <path d="M91,422 L181,422 L181,210 L91,210 z M121,240 L151,240 L151,392 L121,392 z M121,240" fill="#5B9BC7"/>
    <path d="M331.086,210 C331.059,210 331.027,210 331,210 C320.629,210 310.527,211.734 301,215.102 L301,210 L211,210 L211,422 L301,422 L301,315 C301,306.73 307.73,300 316,300 C324.27,300 331,306.73 331,315 L331,422 L421,422 L421,304.688 C421,256.141 381.617,210.047 331.086,210 z M391,392 L361,392 L361,315 C361,290.188 340.812,270 316,270 C291.188,270 271.004,290.188 271,314.996 L271,392 L241,392 L241,240 L271,240 L271,270.02 L295.008,251.988 C305.449,244.145 317.895,240 331,240 L331.059,240 C362.988,240.031 391,270.258 391,304.688 z M391,392" fill="#5B9BC7"/>
    <path d="M91,180 L181,180 L181,90 L91,90 z M121,120 L151,120 L151,150 L121,150 z M121,120" fill="#5B9BC7"/>
  </g>
</svg>
