<?xml version="1.0" encoding="UTF-8"?>
<!DOCTYPE svg PUBLIC "-//W3C//DTD SVG 1.1//EN" "http://www.w3.org/Graphics/SVG/1.1/DTD/svg11.dtd">
<svg version="1.1" xmlns="http://www.w3.org/2000/svg" xmlns:xlink="http://www.w3.org/1999/xlink" x="0" y="0" width="24" height="24" viewBox="0, 0, 24, 24">
  <g id="Calque_1">
    <path d="M0.338,4.422 L2.935,6.13 L2.935,16.997 L0.223,19.673 C-0.253,20.144 0.082,20.957 0.75,20.957 L6.619,20.957 C7.286,20.957 7.623,20.145 7.146,19.673 L4.434,16.997 L4.434,9.085 C7.215,15.001 9.926,20.758 9.861,20.627 C10.135,21.183 11.002,21.198 11.237,20.552 L11.238,20.55 C11.238,20.55 11.239,20.549 11.239,20.548 C11.889,18.755 13.283,14.91 13.194,15.154 C13.244,15.015 15.615,8.248 15.652,8.143 L15.652,17.916 L13.911,19.681 C13.444,20.155 13.781,20.958 14.445,20.958 L23.25,20.958 C23.912,20.958 24.25,20.159 23.786,19.684 L22.113,17.971 L22.046,6.038 L23.777,4.33 C24.253,3.859 23.918,3.046 23.25,3.046 C22.548,3.046 25.795,3.045 16.38,3.05 C15.422,3.078 15.746,3.939 12.394,12.822 L8.284,3.493 C8.164,3.221 7.894,3.045 7.597,3.045 L0.75,3.045 C0.008,3.046 -0.283,4.015 0.338,4.422 z M2.577,19.458 L3.684,18.365 L4.791,19.458 z M17.152,4.546 L21.423,4.546 C20.944,5.081 20.542,5.237 20.544,5.731 L20.615,18.282 C20.617,18.758 21.006,18.925 21.469,19.457 L16.239,19.457 C16.756,18.87 17.153,18.709 17.153,18.223 L17.153,4.546 z M7.108,4.546 L11.662,14.881 L10.436,18.328 C4.26,5.212 4.477,5.006 3.255,4.546 z" fill="#5B9BC7"/>
  </g>
</svg>
