<?xml version="1.0" encoding="UTF-8"?>
<!DOCTYPE svg PUBLIC "-//W3C//DTD SVG 1.1//EN" "http://www.w3.org/Graphics/SVG/1.1/DTD/svg11.dtd">
<svg version="1.1" xmlns="http://www.w3.org/2000/svg" xmlns:xlink="http://www.w3.org/1999/xlink" x="0" y="0" width="512" height="512" viewBox="0, 0, 512, 512">
  <g id="Calque_1">
    <path d="M512,102.965 C479.793,104.449 480.496,104.328 476.855,104.633 L495.93,50.16 C495.93,50.16 436.391,72.062 421.297,75.98 C381.656,40.352 322.734,38.777 280.609,64.668 C246.113,85.875 227.598,122.293 233.773,164.859 C166.637,155.543 110.07,123.719 65.41,70.07 L51.285,53.105 L40.73,72.488 C27.391,96.98 22.961,124.984 28.254,151.34 C30.426,162.152 34.117,172.465 39.23,182.121 L27.113,177.426 L25.676,197.672 C24.219,218.238 31.066,242.246 43.996,261.887 C47.637,267.418 52.324,273.492 58.266,279.484 L52.004,278.523 L59.645,301.723 C69.688,332.203 90.547,355.785 117.617,368.895 C90.582,380.367 68.742,387.688 32.844,399.496 L-0,410.293 L30.336,426.879 C41.902,433.203 82.773,454.324 123.156,460.66 C212.922,474.738 313.988,463.273 382.027,401.996 C439.336,350.383 458.141,276.965 454.234,200.562 C453.645,188.996 456.812,177.957 463.156,169.484 C475.863,152.52 511.922,103.078 512,102.965 z M439.168,151.516 C428.633,165.582 423.355,183.547 424.301,202.094 C428.242,279.16 407.273,338.926 361.973,379.723 C309.055,427.383 223.699,446.09 127.801,431.047 C110.434,428.324 92.484,422.227 77.629,416.137 C107.727,405.781 130.969,396.551 168.504,378.785 L220.902,353.984 L163.051,350.281 C135.34,348.508 112.266,335.078 98.082,313.273 C105.613,312.836 112.875,311.617 120.105,309.602 L175.281,294.234 L119.645,280.609 C92.609,273.988 77.199,257.812 69.031,245.406 C63.668,237.254 60.164,228.902 58.062,221.203 C63.641,222.699 70.145,223.766 80.633,224.805 L132.129,229.898 L91.328,198.07 C61.93,175.141 50.148,140.691 58.785,107.574 C150.535,202.738 258.262,195.586 269.105,198.102 C266.719,174.918 266.656,174.863 266.031,172.656 C252.145,123.566 282.578,98.641 296.305,90.203 C324.977,72.582 370.488,69.926 402.012,98.957 C408.82,105.223 418.027,107.688 426.645,105.547 C434.379,103.625 440.727,101.59 446.941,99.375 L434.004,136.32 L450.52,136.332 C447.402,140.512 443.664,145.516 439.168,151.516 z M439.168,151.516" fill="#5B9BC7"/>
  </g>
</svg>
