<?xml version="1.0" encoding="UTF-8"?>
<!DOCTYPE svg PUBLIC "-//W3C//DTD SVG 1.1//EN" "http://www.w3.org/Graphics/SVG/1.1/DTD/svg11.dtd">
<svg version="1.1" xmlns="http://www.w3.org/2000/svg" xmlns:xlink="http://www.w3.org/1999/xlink" x="0" y="0" width="30.002" height="21.6" viewBox="0, 0, 30.002, 21.6">
  <g id="Calque_1" transform="translate(-0.999, -5.2)">
    <g>
      <path d="M29.41,9.26 C29.086,8.055 28.145,7.114 26.94,6.79 C24.76,6.2 16,6.2 16,6.2 C16,6.2 7.24,6.2 5.06,6.79 C3.855,7.114 2.914,8.055 2.59,9.26 C2.183,11.483 1.985,13.74 2,16 C1.985,18.26 2.183,20.517 2.59,22.74 C2.914,23.945 3.855,24.886 5.06,25.21 C7.24,25.8 16,25.8 16,25.8 C16,25.8 24.76,25.8 26.94,25.21 C28.145,24.886 29.086,23.945 29.41,22.74 C29.817,20.517 30.015,18.26 30,16 C30.015,13.74 29.817,11.483 29.41,9.26 z M13.2,20.2 L13.2,11.8 L20.47,16 z" fill="#5B9BC7"/>
      <path d="M29.41,9.26 C29.086,8.055 28.145,7.114 26.94,6.79 C24.76,6.2 16,6.2 16,6.2 C16,6.2 7.24,6.2 5.06,6.79 C3.855,7.114 2.914,8.055 2.59,9.26 C2.183,11.483 1.985,13.74 2,16 C1.985,18.26 2.183,20.517 2.59,22.74 C2.914,23.945 3.855,24.886 5.06,25.21 C7.24,25.8 16,25.8 16,25.8 C16,25.8 24.76,25.8 26.94,25.21 C28.145,24.886 29.086,23.945 29.41,22.74 C29.817,20.517 30.015,18.26 30,16 C30.015,13.74 29.817,11.483 29.41,9.26 z M13.2,20.2 L13.2,11.8 L20.47,16 z" fill-opacity="0" stroke="#FFFFFF" stroke-width="1"/>
    </g>
  </g>
</svg>
